<svg width="16" height="16" viewBox="0 0 16 16" fill="none" xmlns="http://www.w3.org/2000/svg">
<path fill-rule="evenodd" clip-rule="evenodd" d="M5.84482 11.0854C6.12585 11.0854 6.35367 11.3132 6.35367 11.5942C6.35367 12.5034 7.09072 13.2405 7.99993 13.2405C8.90913 13.2405 9.64618 12.5034 9.64618 11.5942C9.64618 11.3132 9.874 11.0854 10.155 11.0854C10.4361 11.0854 10.6639 11.3132 10.6639 11.5942C10.6639 13.0655 9.47118 14.2582 7.99993 14.2582C6.52867 14.2582 5.33598 13.0655 5.33598 11.5942C5.33598 11.3132 5.5638 11.0854 5.84482 11.0854Z" fill="#17191C"/>
<path fill-rule="evenodd" clip-rule="evenodd" d="M4.95176 2.93006C5.76569 2.16883 6.86276 1.74658 8.00012 1.74658C9.13749 1.74658 10.2346 2.16883 11.0485 2.93006C11.8636 3.69237 12.3285 4.73385 12.3285 5.82762C12.3285 7.31369 12.669 8.37541 13.0755 9.11729L13.0802 9.12582C13.3324 9.58606 13.5272 9.94156 13.6573 10.1957C13.7223 10.3227 13.7771 10.4357 13.8158 10.5295C13.835 10.5762 13.8545 10.6281 13.8692 10.6807C13.8807 10.7222 13.9041 10.8139 13.8944 10.9217C13.869 11.2016 13.6216 11.408 13.3417 11.3826C13.0977 11.3605 12.9095 11.1696 12.8822 10.9355C12.8803 10.9306 12.8779 10.9248 12.8751 10.9178C12.8526 10.8633 12.8132 10.7801 12.7514 10.6594C12.6287 10.4197 12.4409 10.0769 12.1831 9.60632C11.6906 8.70761 11.3108 7.47656 11.3108 5.82762C11.3108 5.02658 10.9708 4.25085 10.3533 3.67333C9.73468 3.09473 8.88874 2.76427 8.00012 2.76427C7.1115 2.76427 6.26557 3.09473 5.64691 3.67333C5.02941 4.25085 4.68948 5.02658 4.68948 5.82762C4.68948 7.47656 4.30963 8.70761 3.81719 9.60632C3.55937 10.0769 3.37156 10.4197 3.24884 10.6594C3.18709 10.7801 3.14766 10.8633 3.12519 10.9178C3.1223 10.9248 3.11996 10.9306 3.11809 10.9355C3.09071 11.1696 2.90259 11.3605 2.65856 11.3826C2.37868 11.408 2.13124 11.2016 2.10588 10.9217C2.09611 10.8139 2.11954 10.7222 2.13109 10.6807C2.14573 10.6281 2.16521 10.5762 2.18447 10.5295C2.22319 10.4357 2.27792 10.3227 2.34297 10.1957C2.47303 9.9416 2.66779 9.58617 2.91991 9.12604L2.9247 9.11729C3.3312 8.37541 3.67179 7.31369 3.67179 5.82762C3.67179 4.73385 4.13668 3.69237 4.95176 2.93006Z" fill="#17191C"/>
<path fill-rule="evenodd" clip-rule="evenodd" d="M1.38513 10.7262H14.6151V11.7439H1.38513V10.7262Z" fill="#17191C"/>
</svg>
