<svg width="32" height="20" viewBox="0 0 32 20" fill="none" xmlns="http://www.w3.org/2000/svg">
<g clip-path="url(#clip0_8917_7400)">
<g style="mix-blend-mode:multiply">
<path d="M2.33333 18.68C2.33333 19.3243 1.811 19.8467 1.16667 19.8467C0.522335 19.8467 0 19.3243 0 18.68C0 18.0357 0.522335 17.5133 1.16667 17.5133C1.811 17.5133 2.33333 18.0357 2.33333 18.68Z" fill="#4DC8FD"/>
<path d="M6.33333 14.8467C6.33333 15.7671 5.58714 16.5133 4.66667 16.5133C3.74619 16.5133 3 15.7671 3 14.8467C3 13.9262 3.74619 13.18 4.66667 13.18C5.58714 13.18 6.33333 13.9262 6.33333 14.8467Z" fill="#4DC8FD"/>
</g>
<g style="mix-blend-mode:multiply">
<path d="M13.4 13.35C13.4 9.67729 16.3773 6.69998 20.05 6.69998H23.45C28.172 6.69998 32 10.5279 32 15.25V20H20.05C16.3773 20 13.4 17.0227 13.4 13.35Z" fill="url(#paint0_linear_8917_7400)"/>
</g>
<g style="mix-blend-mode:multiply">
<rect x="4" width="18.6" height="13.3" rx="6.65" fill="url(#paint1_linear_8917_7400)"/>
</g>
</g>
<defs>
<linearGradient id="paint0_linear_8917_7400" x1="13.4" y1="13.35" x2="32" y2="13.35" gradientUnits="userSpaceOnUse">
<stop stop-color="#83FFD6"/>
<stop offset="0.75" stop-color="#50D7F5"/>
<stop offset="1" stop-color="#24CEFD"/>
</linearGradient>
<linearGradient id="paint1_linear_8917_7400" x1="4" y1="6.65" x2="22.6" y2="6.65" gradientUnits="userSpaceOnUse">
<stop stop-color="#24CEFD"/>
<stop offset="0.25" stop-color="#50D7F5"/>
<stop offset="1" stop-color="#83FFD6"/>
</linearGradient>
<clipPath id="clip0_8917_7400">
<rect width="32" height="20" fill="white"/>
</clipPath>
</defs>
</svg>
