<svg width="16" height="16" viewBox="0 0 16 16" fill="none" xmlns="http://www.w3.org/2000/svg">
<g id="Icon">
<path id="More-horizontal" fill-rule="evenodd" clip-rule="evenodd" d="M3.33341 9.1665C2.68908 9.1665 2.16675 8.64417 2.16675 7.99984C2.16675 7.35551 2.68908 6.83317 3.33341 6.83317C3.97775 6.83317 4.50008 7.35551 4.50008 7.99984C4.50008 8.64417 3.97775 9.1665 3.33341 9.1665ZM8.00008 9.1665C7.35575 9.1665 6.83341 8.64417 6.83341 7.99984C6.83341 7.3555 7.35575 6.83317 8.00008 6.83317C8.64441 6.83317 9.16675 7.3555 9.16675 7.99984C9.16675 8.64417 8.64441 9.1665 8.00008 9.1665ZM12.6667 9.1665C12.0224 9.1665 11.5001 8.64417 11.5001 7.99984C11.5001 7.3555 12.0224 6.83317 12.6667 6.83317C13.3111 6.83317 13.8334 7.3555 13.8334 7.99984C13.8334 8.64417 13.3111 9.1665 12.6667 9.1665Z" fill="#17191C"/>
</g>
</svg>
