<svg width="24" height="24" viewBox="0 0 24 24" fill="none" xmlns="http://www.w3.org/2000/svg">
<rect width="24" height="24" rx="12" fill="#F0F3FB"/>
<path d="M15.4992 8.99994V15.0001H8.50077V9.00102L15.4992 8.99994ZM15.4992 8.5H8.49916C8.36683 8.50064 8.24012 8.55354 8.14662 8.64718C8.05313 8.74083 8.00042 8.86762 8 8.99994V15.0001C8.00043 15.1325 8.05324 15.2594 8.14691 15.3531C8.24058 15.4468 8.3675 15.4996 8.49997 15.5H15.5C15.6325 15.4996 15.7594 15.4468 15.8531 15.3531C15.9468 15.2594 15.9996 15.1325 16 15.0001V8.99994C15.9996 8.86748 15.9468 8.74057 15.8531 8.6469C15.7594 8.55324 15.6325 8.50043 15.5 8.5H15.4992ZM14.4993 10.2499C14.4993 10.3983 14.4553 10.5434 14.3728 10.6667C14.2904 10.7901 14.1732 10.8862 14.0361 10.943C13.899 10.9997 13.7481 11.0145 13.6026 10.9855C13.4571 10.9565 13.3234 10.885 13.2185 10.78C13.1137 10.675 13.0423 10.5413 13.0134 10.3958C12.9846 10.2502 12.9996 10.0994 13.0565 9.96234C13.1133 9.8253 13.2096 9.70822 13.3331 9.6259C13.4565 9.54358 13.6016 9.49972 13.75 9.49988C13.949 9.49988 14.1397 9.57891 14.2804 9.71957C14.4211 9.86023 14.5001 10.051 14.5001 10.2499H14.4993ZM14.9993 14.4998H8.99993V13.5L10.7499 10.5L12.7501 13H13.2501L15.0001 11.5002L14.9993 14.4998Z" fill="#9AA3B2"/>
</svg>
