<svg width="16" height="16" viewBox="0 0 16 16" fill="none" xmlns="http://www.w3.org/2000/svg">
<g id="Icon">
<path id="Vector" fill-rule="evenodd" clip-rule="evenodd" d="M2.75441 1.99999C2.54613 1.79171 2.20844 1.79171 2.00016 1.99999C1.79188 2.20827 1.79188 2.54596 2.00016 2.75424L4.04542 4.79943C4.04528 4.7995 4.04514 4.79958 4.045 4.79966L4.83567 5.59031C4.83582 5.59024 4.83596 5.59017 4.83611 5.59009L5.87141 6.62536C5.87133 6.6255 5.87124 6.62563 5.87116 6.62576L6.65619 7.41077C6.65626 7.41062 6.65632 7.41047 6.65639 7.41032L8.58949 9.34335C8.58934 9.34342 8.58919 9.34349 8.58904 9.34355L9.37407 10.1286C9.3742 10.1285 9.37433 10.1284 9.37447 10.1283L10.1263 10.8801C10.1261 10.8802 10.126 10.8802 10.1258 10.8803L10.9803 11.7347C10.9805 11.7347 10.9806 11.7346 10.9808 11.7346L13.2463 14C13.4546 14.2083 13.7923 14.2083 14.0006 14C14.2088 13.7918 14.2088 13.4541 14.0006 13.2458L2.75441 1.99999ZM1.35031 7.93648C1.64553 6.78872 2.48297 5.79891 3.57416 5.08307L4.34753 5.85642L4.31251 5.87774C3.34845 6.46895 2.68328 7.2449 2.42481 8.05801C2.79894 9.05712 4.40812 11.1335 8.00016 11.1335C8.54694 11.1335 9.04729 11.0902 9.50403 11.0128L10.401 11.9097C9.69587 12.0935 8.89731 12.2001 8.00016 12.2001C3.74782 12.2001 1.7521 9.59287 1.35448 8.21745C1.32799 8.12585 1.32656 8.02883 1.35031 7.93648ZM5.46631 8.00012C5.46631 7.69401 5.5206 7.40058 5.62008 7.12893L6.53357 8.04239C6.55555 8.81883 7.18097 9.44424 7.95742 9.46619L8.87091 10.3797C8.59924 10.4791 8.30578 10.5335 7.99964 10.5335C6.60052 10.5335 5.46631 9.39924 5.46631 8.00012ZM10.3793 8.87105L9.4657 7.95749C9.44355 7.18133 8.81839 6.55619 8.04223 6.53406L7.12864 5.62049C7.40023 5.52106 7.6936 5.46679 7.99964 5.46679C9.39876 5.46679 10.533 6.601 10.533 8.00012C10.533 8.30614 10.4787 8.59948 10.3793 8.87105ZM8.00016 4.86679C7.49584 4.86679 7.00051 4.91947 6.52525 5.01713L5.64561 4.13752C6.38917 3.91997 7.18554 3.80012 8.00016 3.80012C11.0978 3.80012 13.8846 5.55205 14.6408 7.90623C14.6707 7.99944 14.6744 8.09908 14.6515 8.19425C14.4373 9.0834 13.7485 10.1748 12.5021 10.9938L11.7289 10.2206C12.8064 9.57425 13.3758 8.7142 13.5746 8.08701C12.9243 6.35183 10.6942 4.86679 8.00016 4.86679Z" fill="#9AA3B2"/>
</g>
</svg>
