<svg width="24" height="24" viewBox="0 0 24 24" fill="none" xmlns="http://www.w3.org/2000/svg">
<path fill-rule="evenodd" clip-rule="evenodd" d="M12 21.5C17.2467 21.5 21.5 17.2467 21.5 12C21.5 6.75329 17.2467 2.5 12 2.5C6.75329 2.5 2.5 6.75329 2.5 12C2.5 17.2467 6.75329 21.5 12 21.5ZM23 12C23 18.0751 18.0751 23 12 23C5.92487 23 1 18.0751 1 12C1 5.92487 5.92487 1 12 1C18.0751 1 23 5.92487 23 12Z" fill="#CCD3E0"/>
<path fill-rule="evenodd" clip-rule="evenodd" d="M10.5833 10.25H12.75V15.25H13.75V16.75H10.25V15.25H11.25V11.75H10.5833V10.25Z" fill="#CCD3E0"/>
<path d="M11 7H13V9H11V7Z" fill="#CCD3E0"/>
</svg>
