<svg width="16" height="16" viewBox="0 0 16 16" fill="none" xmlns="http://www.w3.org/2000/svg">
<g id="Icon" clip-path="url(#clip0_8767_107)">
<g id="Vector">
<path fill-rule="evenodd" clip-rule="evenodd" d="M7.99999 14.3334C11.4978 14.3334 14.3333 11.4978 14.3333 8.00002C14.3333 4.50222 11.4978 1.66669 7.99999 1.66669C4.50219 1.66669 1.66666 4.50222 1.66666 8.00002C1.66666 11.4978 4.50219 14.3334 7.99999 14.3334ZM15.3333 8.00002C15.3333 12.0501 12.0501 15.3334 7.99999 15.3334C3.9499 15.3334 0.666656 12.0501 0.666656 8.00002C0.666656 3.94993 3.9499 0.666687 7.99999 0.666687C12.0501 0.666687 15.3333 3.94993 15.3333 8.00002Z" fill="#17191C"/>
<path fill-rule="evenodd" clip-rule="evenodd" d="M7.05554 6.83335H8.49999V10.1667H9.16666V11.1667H6.83332V10.1667H7.49999V7.83335H7.05554V6.83335Z" fill="#17191C"/>
<path d="M7.33332 4.66669H8.66666V6.00002H7.33332V4.66669Z" fill="#17191C"/>
</g>
</g>
<defs>
<clipPath id="clip0_8767_107">
<rect width="16" height="16" fill="white"/>
</clipPath>
</defs>
</svg>
