<svg width="24" height="24" viewBox="0 0 24 24" fill="none" xmlns="http://www.w3.org/2000/svg">
<g id="Icon">
<path id="Union" d="M12 18.1699C12.3525 18.1699 12.6387 18.4561 12.6387 18.8086V21.3613C12.6387 21.7139 12.3525 22 12 22C11.6475 22 11.3613 21.7138 11.3613 21.3613V18.8086C11.3613 18.4561 11.6475 18.1699 12 18.1699ZM8.04297 17.5771C8.21925 17.2719 8.60977 17.1675 8.91504 17.3438C9.22014 17.5201 9.32465 17.9106 9.14844 18.2158L7.87207 20.4268C7.69581 20.732 7.30529 20.8364 7 20.6602C6.69471 20.4839 6.59034 20.0934 6.7666 19.7881L8.04297 17.5771ZM15.085 17.3438C15.3902 17.1675 15.7807 17.2719 15.957 17.5771L17.2334 19.7881C17.4097 20.0934 17.3053 20.4839 17 20.6602C16.6947 20.8364 16.3042 20.732 16.1279 20.4268L14.8516 18.2158C14.6754 17.9106 14.7799 17.5201 15.085 17.3438ZM5.78418 14.8516C6.08941 14.6753 6.47994 14.7798 6.65625 15.085C6.8325 15.3902 6.72811 15.7808 6.42285 15.957L4.21191 17.2334C3.90663 17.4097 3.51612 17.3053 3.33984 17C3.16359 16.6947 3.26798 16.3042 3.57324 16.1279L5.78418 14.8516ZM17.3438 15.085C17.5201 14.7798 17.9106 14.6753 18.2158 14.8516L20.4268 16.1279C20.732 16.3042 20.8364 16.6947 20.6602 17C20.4839 17.3052 20.0933 17.4096 19.7881 17.2334L17.5771 15.957C17.2719 15.7807 17.1675 15.3902 17.3438 15.085ZM5.19141 11.3613C5.54392 11.3613 5.83008 11.6475 5.83008 12C5.83007 12.3525 5.54391 12.6387 5.19141 12.6387H2.63867C2.28615 12.6387 2 12.3525 2 12C2 11.6475 2.28615 11.3613 2.63867 11.3613H5.19141ZM21.3613 11.3613C21.7139 11.3613 22 11.6475 22 12C22 12.3525 21.7138 12.6387 21.3613 12.6387H18.8086C18.4561 12.6387 18.1699 12.3525 18.1699 12C18.1699 11.6475 18.4561 11.3613 18.8086 11.3613H21.3613ZM3.33984 7C3.51611 6.69473 3.90663 6.59035 4.21191 6.7666L6.42285 8.04297C6.7281 8.21925 6.8325 8.60977 6.65625 8.91504C6.47993 9.22018 6.08941 9.32466 5.78418 9.14844L3.57324 7.87207C3.26796 7.6958 3.16359 7.30529 3.33984 7ZM19.7881 6.7666C20.0934 6.59036 20.4839 6.69477 20.6602 7C20.8364 7.30529 20.7321 7.69581 20.4268 7.87207L18.2158 9.14844C17.9106 9.32467 17.5201 9.22022 17.3438 8.91504C17.1675 8.60978 17.2719 8.21926 17.5771 8.04297L19.7881 6.7666ZM7 3.33984C7.30525 3.16361 7.69578 3.26804 7.87207 3.57324L9.14844 5.78418C9.32469 6.08946 9.2203 6.47998 8.91504 6.65625C8.60975 6.83251 8.21923 6.72814 8.04297 6.42285L6.7666 4.21191C6.59038 3.90668 6.69485 3.51616 7 3.33984ZM16.1279 3.57324C16.3042 3.26803 16.6947 3.1636 17 3.33984C17.3052 3.51614 17.4096 3.90667 17.2334 4.21191L15.957 6.42285C15.7808 6.72814 15.3903 6.83251 15.085 6.65625C14.7797 6.47996 14.6753 6.08944 14.8516 5.78418L16.1279 3.57324ZM12 2C12.3525 2 12.6387 2.28615 12.6387 2.63867V5.19141C12.6387 5.54393 12.3525 5.83008 12 5.83008C11.6475 5.83007 11.3613 5.54392 11.3613 5.19141V2.63867C11.3613 2.28616 11.6475 2.00001 12 2Z" fill="#18D9A0"/>
</g>
</svg>
