<svg width="16" height="16" viewBox="0 0 16 16" fill="none" xmlns="http://www.w3.org/2000/svg">
<g id="Icon" clip-path="url(#clip0_8767_185)">
<g id="Vector">
<path fill-rule="evenodd" clip-rule="evenodd" d="M10.77 2.30147L8.83583 1.75814C8.63921 1.70291 8.42811 1.75947 8.28545 1.90562L6.88207 3.34324L5.44445 4.74662C5.2983 4.88929 5.24174 5.10038 5.29697 5.297L5.9289 7.5466L1.51946 11.956L1.66302 14.2546L3.96157 14.3982L8.37099 9.98873L10.6206 10.6207C10.8173 10.6759 11.0284 10.6193 11.171 10.4732L12.5744 9.03558L14.012 7.6322C14.1582 7.48953 14.2147 7.27844 14.1595 7.08181L13.6162 5.14764L13.1196 3.20093L14.0886 2.95377L14.5822 4.8888L15.1222 6.81137C15.2764 7.36025 15.1185 7.94952 14.7106 8.34777L13.2816 9.74274L11.8866 11.1717C11.4883 11.5797 10.8991 11.7376 10.3502 11.5834L8.66415 11.1098L4.59819 15.1757C4.44014 15.3338 4.22181 15.4164 3.99872 15.4024L1.40613 15.2405C1.0141 15.216 0.701608 14.9035 0.677121 14.5115L0.515189 11.9189C0.501255 11.6958 0.583811 11.4775 0.741866 11.3194L4.80784 7.25344L4.33423 5.56744C4.18005 5.01856 4.33794 4.4293 4.74591 4.03104L6.17491 2.63608L7.56987 1.20708C7.96812 0.799116 8.55739 0.641223 9.10627 0.795408L11.0288 1.33547L12.9639 1.82905C13.5163 1.96996 13.9477 2.40133 14.0886 2.95377L13.1196 3.20093C13.0691 3.00303 12.9146 2.8485 12.7167 2.79802L10.77 2.30147Z" fill="#3C4048"/>
<path d="M11.3701 5.77095C11.7081 5.43291 11.7081 4.88484 11.3701 4.5468C11.032 4.20876 10.484 4.20876 10.1459 4.5468C9.80789 4.88484 9.80789 5.43291 10.1459 5.77095C10.484 6.10899 11.032 6.10899 11.3701 5.77095Z" fill="#3C4048"/>
</g>
</g>
<defs>
<clipPath id="clip0_8767_185">
<rect width="16" height="16" fill="white"/>
</clipPath>
</defs>
</svg>
