<svg width="16" height="16" viewBox="0 0 16 16" fill="none" xmlns="http://www.w3.org/2000/svg">
<g id="Icon">
<g id="Vector">
<path fill-rule="evenodd" clip-rule="evenodd" d="M1.31766 3.47153L2.02476 2.76443L2.99114 3.73081L5.08889 1.63306L5.796 2.34016L2.99114 5.14502L1.31766 3.47153Z" fill="#17191C"/>
<path fill-rule="evenodd" clip-rule="evenodd" d="M15.0045 4.16669H7.67121V3.16669H15.0045V4.16669Z" fill="#17191C"/>
<path fill-rule="evenodd" clip-rule="evenodd" d="M1.31766 8.1382L2.02476 7.43109L2.99114 8.39747L5.08889 6.29972L5.796 7.00683L2.99114 9.81169L1.31766 8.1382Z" fill="#17191C"/>
<path fill-rule="evenodd" clip-rule="evenodd" d="M15.0045 8.83335H7.67121V7.83335H15.0045V8.83335Z" fill="#17191C"/>
<path fill-rule="evenodd" clip-rule="evenodd" d="M1.31766 12.8049L2.02476 12.0978L2.99114 13.0641L5.08889 10.9664L5.796 11.6735L2.99114 14.4784L1.31766 12.8049Z" fill="#17191C"/>
<path fill-rule="evenodd" clip-rule="evenodd" d="M15.0045 13.5001H7.67121V12.5001H15.0045V13.5001Z" fill="#17191C"/>
</g>
</g>
</svg>
