<svg width="16" height="16" viewBox="0 0 16 16" fill="none" xmlns="http://www.w3.org/2000/svg">
<g id="Icon">
<path id="Union" fill-rule="evenodd" clip-rule="evenodd" d="M0.423187 2.04669H6.38814L7.92661 3.89285H15.577V15.0467H0.423187V2.04669ZM1.42319 3.04669V14.0467H2.52603C3.5019 12.0978 5.59469 10.7667 8.00009 10.7667C10.4055 10.7667 12.4983 12.0978 13.4742 14.0467H14.577V4.89285H7.45823L5.91977 3.04669H1.42319ZM12.3234 14.0467C11.4405 12.6867 9.84136 11.7667 8.00009 11.7667C6.15883 11.7667 4.55964 12.6867 3.67676 14.0467H12.3234ZM8.00001 9.00002C8.55229 9.00002 9.00001 8.5523 9.00001 8.00002C9.00001 7.44774 8.55229 7.00002 8.00001 7.00002C7.44773 7.00002 7.00001 7.44774 7.00001 8.00002C7.00001 8.5523 7.44773 9.00002 8.00001 9.00002ZM8.00001 10C9.10458 10 10 9.10459 10 8.00002C10 6.89545 9.10458 6.00002 8.00001 6.00002C6.89544 6.00002 6.00001 6.89545 6.00001 8.00002C6.00001 9.10459 6.89544 10 8.00001 10Z" fill="#3C4048"/>
</g>
</svg>
