<svg width="16" height="16" viewBox="0 0 16 16" fill="none" xmlns="http://www.w3.org/2000/svg">
<g id="Icon">
<g id="Vector">
<path fill-rule="evenodd" clip-rule="evenodd" d="M7.99994 2.54163C6.44866 2.54163 5.19111 3.79918 5.19111 5.35045C5.19111 6.90172 6.44866 8.15927 7.99994 8.15927C9.55121 8.15927 10.8088 6.90172 10.8088 5.35045C10.8088 3.79918 9.55121 2.54163 7.99994 2.54163ZM4.19111 5.35045C4.19111 3.24689 5.89638 1.54163 7.99994 1.54163C10.1035 1.54163 11.8088 3.24689 11.8088 5.35045C11.8088 7.45401 10.1035 9.15927 7.99994 9.15927C5.89638 9.15927 4.19111 7.45401 4.19111 5.35045Z" fill="#3C4048"/>
<path fill-rule="evenodd" clip-rule="evenodd" d="M4.85252 12.0366C3.97203 12.3722 3.17922 12.8952 2.33626 13.6616L1.96629 13.9979L1.29361 13.258L1.66358 12.9217C2.57245 12.0954 3.46978 11.4934 4.49639 11.1022C5.5219 10.7113 6.64776 10.5416 7.99992 10.5416C9.35208 10.5416 10.4779 10.7113 11.5034 11.1022C12.5301 11.4934 13.4274 12.0954 14.3363 12.9217L14.7062 13.258L14.0335 13.9979L13.6636 13.6616C12.8206 12.8952 12.0278 12.3722 11.1473 12.0366C10.2657 11.7006 9.26749 11.5416 7.99992 11.5416C6.73234 11.5416 5.73412 11.7006 4.85252 12.0366Z" fill="#3C4048"/>
</g>
</g>
</svg>
