<svg width="24" height="24" viewBox="0 0 24 24" fill="none" xmlns="http://www.w3.org/2000/svg">
<path fill-rule="evenodd" clip-rule="evenodd" d="M12 21.5C17.2467 21.5 21.5 17.2467 21.5 12C21.5 6.75329 17.2467 2.5 12 2.5C6.75329 2.5 2.5 6.75329 2.5 12C2.5 17.2467 6.75329 21.5 12 21.5ZM12 23C18.0751 23 23 18.0751 23 12C23 5.92487 18.0751 1 12 1C5.92487 1 1 5.92487 1 12C1 18.0751 5.92487 23 12 23Z" fill="#CCD3E0"/>
<path d="M10.8125 14.6406C10.8177 13.9844 10.8828 13.4531 11.0078 13.0469C11.138 12.6354 11.3177 12.3073 11.5469 12.0625C11.776 11.8125 12.0833 11.5677 12.4688 11.3281C13.2396 10.849 13.625 10.25 13.625 9.53125C13.625 9.21354 13.5495 8.9349 13.3984 8.69531C13.2526 8.45052 13.0495 8.26302 12.7891 8.13281C12.5339 8.0026 12.25 7.9375 11.9375 7.9375C11.6458 7.9375 11.3724 8 11.1172 8.125C10.862 8.24479 10.651 8.42969 10.4844 8.67969C10.3229 8.92969 10.2292 9.23958 10.2031 9.60938H8.51562C8.53646 8.96875 8.69792 8.41667 9 7.95312C9.30729 7.48438 9.71615 7.13021 10.2266 6.89062C10.737 6.65104 11.3073 6.53125 11.9375 6.53125C12.6042 6.53125 13.1927 6.65885 13.7031 6.91406C14.2188 7.16406 14.6172 7.51562 14.8984 7.96875C15.1849 8.42188 15.3281 8.94271 15.3281 9.53125C15.3281 10.1354 15.1927 10.6589 14.9219 11.1016C14.651 11.5391 14.2552 11.9167 13.7344 12.2344C13.4115 12.4271 13.1562 12.6276 12.9688 12.8359C12.7865 13.0443 12.6484 13.2917 12.5547 13.5781C12.4661 13.8646 12.4167 14.2188 12.4062 14.6406V14.7344H10.8125V14.6406ZM11.6719 18.1094C11.474 18.1094 11.2865 18.0599 11.1094 17.9609C10.9375 17.862 10.8021 17.7266 10.7031 17.5547C10.6042 17.3828 10.5573 17.1979 10.5625 17C10.5573 16.8021 10.6042 16.6172 10.7031 16.4453C10.8021 16.2734 10.9375 16.138 11.1094 16.0391C11.2865 15.9401 11.474 15.8906 11.6719 15.8906C11.8646 15.8906 12.0469 15.9401 12.2188 16.0391C12.3906 16.138 12.526 16.2734 12.625 16.4453C12.7292 16.6172 12.7812 16.8021 12.7812 17C12.7812 17.1979 12.7292 17.3828 12.625 17.5547C12.526 17.7266 12.3906 17.862 12.2188 17.9609C12.0469 18.0599 11.8646 18.1094 11.6719 18.1094Z" fill="#CCD3E0"/>
</svg>
