<svg width="16" height="16" viewBox="0 0 16 16" fill="none" xmlns="http://www.w3.org/2000/svg">
<g id="Icon">
<path id="Search" fill-rule="evenodd" clip-rule="evenodd" d="M6.87498 2.5C4.45875 2.5 2.5 4.45874 2.5 6.87498C2.5 9.29121 4.45875 11.25 6.87498 11.25C9.29121 11.25 11.25 9.29121 11.25 6.87498C11.25 4.45874 9.29121 2.5 6.87498 2.5ZM1.5 6.87498C1.5 3.90646 3.90646 1.5 6.87498 1.5C9.8435 1.5 12.25 3.90646 12.25 6.87498C12.25 8.17919 11.7854 9.37492 11.0128 10.3057L14.3536 13.6464L13.6464 14.3536L10.3057 11.0128C9.37492 11.7854 8.17919 12.25 6.87498 12.25C3.90646 12.25 1.5 9.8435 1.5 6.87498Z" fill="#17191C"/>
</g>
</svg>
