<svg width="24" height="24" viewBox="0 0 24 24" fill="none" xmlns="http://www.w3.org/2000/svg">
<path fill-rule="evenodd" clip-rule="evenodd" d="M9.00878 1.25H14.9909L15.53 3.97743C16.1598 4.2446 16.7518 4.57917 17.2953 4.9756L19.9603 4.07229L22.965 9.18337L20.826 11.0107C20.8677 11.3488 20.8897 11.6768 20.8897 12C20.8897 12.3232 20.8677 12.6512 20.826 12.9893L22.965 14.8166L19.9603 19.9277L17.2953 19.0244C16.7518 19.4208 16.1598 19.7554 15.53 20.0226L14.9909 22.75H9.00878L8.46965 20.0226C7.83989 19.7554 7.24784 19.4208 6.70437 19.0244L4.03938 19.9277L1.03467 14.8166L3.17371 12.9893C3.13199 12.6512 3.10994 12.3232 3.10994 12C3.10994 11.6768 3.13199 11.3488 3.17371 11.0107L1.03467 9.18337L4.03938 4.07229L6.70437 4.9756C7.24784 4.57917 7.83989 4.2446 8.46965 3.97743L9.00878 1.25ZM10.2413 2.75L9.78058 5.08077L9.38689 5.22669C8.62222 5.51011 7.9236 5.90603 7.31386 6.3981L6.9928 6.6572L4.71388 5.88474L2.96501 8.8596L4.78434 10.4138L4.71511 10.8316C4.64455 11.2573 4.60994 11.6403 4.60994 12C4.60994 12.3597 4.64455 12.7427 4.71511 13.1684L4.78434 13.5862L2.96501 15.1404L4.71388 18.1153L6.9928 17.3428L7.31386 17.6019C7.9236 18.094 8.62222 18.4899 9.38689 18.7733L9.78058 18.9192L10.2413 21.25H13.7584L14.2191 18.9192L14.6128 18.7733C15.3775 18.4899 16.0761 18.094 16.6858 17.6019L17.0069 17.3428L19.2858 18.1153L21.0347 15.1404L19.2153 13.5862L19.2846 13.1684C19.3551 12.7427 19.3897 12.3597 19.3897 12C19.3897 11.6403 19.3551 11.2573 19.2846 10.8316L19.2153 10.4138L21.0347 8.8596L19.2858 5.88474L17.0069 6.6572L16.6858 6.3981C16.0761 5.90603 15.3775 5.51011 14.6128 5.22669L14.2191 5.08077L13.7584 2.75H10.2413Z" fill="#9AA3B2"/>
<path fill-rule="evenodd" clip-rule="evenodd" d="M11.9998 9.75C10.7572 9.75 9.74985 10.7574 9.74985 12C9.74985 13.2426 10.7572 14.25 11.9998 14.25C13.2425 14.25 14.2498 13.2426 14.2498 12C14.2498 10.7574 13.2425 9.75 11.9998 9.75ZM8.24985 12C8.24985 9.92893 9.92878 8.25 11.9998 8.25C14.0709 8.25 15.7498 9.92893 15.7498 12C15.7498 14.0711 14.0709 15.75 11.9998 15.75C9.92878 15.75 8.24985 14.0711 8.24985 12Z" fill="#9AA3B2"/>
</svg>
