<svg width="96" height="56" viewBox="0 0 96 56" fill="none" xmlns="http://www.w3.org/2000/svg">
<g clip-path="url(#clip0_118_540)">
<g style="mix-blend-mode:multiply">
<path d="M7 52.5C7 54.433 5.433 56 3.5 56C1.567 56 0 54.433 0 52.5C0 50.567 1.567 49 3.5 49C5.433 49 7 50.567 7 52.5Z" fill="#4DC8FD"/>
<path d="M19 44C19 46.7614 16.7614 49 14 49C11.2386 49 9 46.7614 9 44C9 41.2386 11.2386 39 14 39C16.7614 39 19 41.2386 19 44Z" fill="#4DC8FD"/>
</g>
<g style="mix-blend-mode:multiply">
<path d="M40 36C40 24.9543 48.9543 16 60 16H70.1538C84.4283 16 96 27.5717 96 41.8462V56H60C48.9543 56 40 47.0457 40 36Z" fill="url(#paint0_linear_118_540)"/>
</g>
<g style="mix-blend-mode:multiply">
<rect x="12" width="56" height="40" rx="20" fill="url(#paint1_linear_118_540)"/>
</g>
</g>
<defs>
<linearGradient id="paint0_linear_118_540" x1="40" y1="36" x2="96" y2="36" gradientUnits="userSpaceOnUse">
<stop stop-color="#83FFD6"/>
<stop offset="0.75" stop-color="#50D7F5"/>
<stop offset="1" stop-color="#24CEFD"/>
</linearGradient>
<linearGradient id="paint1_linear_118_540" x1="12" y1="20" x2="68" y2="20" gradientUnits="userSpaceOnUse">
<stop stop-color="#24CEFD"/>
<stop offset="0.25" stop-color="#50D7F5"/>
<stop offset="1" stop-color="#83FFD6"/>
</linearGradient>
<clipPath id="clip0_118_540">
<rect width="96" height="56" fill="white"/>
</clipPath>
</defs>
</svg>
